PathFileType	4	(X/Y/Z)	./resultDataOpenSim/trcMotMarkerGrf/sub09/qtm-03-02.trc
DataRate	CameraRate	NumFrames	NumMarkers	Units	OrigDataRate	OrigDataStartFrame	OrigNumFrames
250.000000	250.000000	7	24	m	250.000000	187	496
Frame#	Time	L.Toe.Tip			R.Toe.Tip			L.Ankle.Lat			R.Ankle.Lat			L.Ankle.Med			R.Ankle.Med			L.Heel			R.Heel			L.Knee.Lat			R.Knee.Lat			L.Knee.Med			R.Knee.Med			L.Thigh.Upper			R.Thigh.Upper			L.ASIS			R.ASIS			V.Sacral			L.Acromium			R.Acromium			C7			L.Elbow			R.Elbow			L.Wrist.Lat			R.Wrist.Lat
		X1	Y1	Z1	X2	Y2	Z2	X3	Y3	Z3	X4	Y4	Z4	X5	Y5	Z5	X6	Y6	Z6	X7	Y7	Z7	X8	Y8	Z8	X9	Y9	Z9	X10	Y10	Z10	X11	Y11	Z11	X12	Y12	Z12	X13	Y13	Z13	X14	Y14	Z14	X15	Y15	Z15	X16	Y16	Z16	X17	Y17	Z17	X18	Y18	Z18	X19	Y19	Z19	X20	Y20	Z20	X21	Y21	Z21	X22	Y22	Z22	X23	Y23	Z23	X24	Y24	Z24

187	0.744	0.13959993	-0.0094460101	0.025694983	-0.6377235	0.05693126	0.094532103	-0.0028010123	0.022402678	-0.033624423	-0.69666794	0.19387612	0.14147361	0.0045973337	0.042662587	0.063975294	-0.6448088	0.1963125	0.058348239	-0.078884527	-0.012502931	0.00057180268	-0.73964773	0.23362233	0.079192559	0.023097522	0.43456161	-0.081295698	-0.2995987	0.40709335	0.22482967	0.0090610393	0.4383577	0.043193429	-0.28661847	0.37805974	0.097498739	-0.17907871	0.80719882	-0.13997533	-0.24915798	0.79549263	0.22906973	-0.12024477	0.89585338	-0.068704196	-0.13869361	0.88093721	0.17284278	-0.29961645	0.93490082	0.03849323	-0.16194508	1.3406402	-0.1226845	-0.18821616	1.3491574	0.20849185	-0.23973387	1.3929848	0.040838126	-0.31987853	1.0145008	-0.17151066	-0.30250191	0.9912119	0.27918894	-0.25550355	0.77023073	-0.23771882	-0.10031056	0.80388488	0.27792453
188	0.748	0.13967477	-0.0096352382	0.025936285	-0.63331169	0.058672667	0.096032938	-0.0025936289	0.022217694	-0.033460936	-0.68643487	0.19856424	0.14349093	0.0045743505	0.042493272	0.064318157	-0.63474741	0.19955967	0.060331164	-0.07891711	-0.012461073	0.00077430594	-0.72852385	0.23978824	0.081584727	0.027594384	0.43351211	-0.081440998	-0.28659975	0.40537761	0.22535325	0.014586756	0.43718064	0.043160379	-0.27419901	0.37639433	0.098919115	-0.17266787	0.80716707	-0.14034452	-0.24042908	0.79442066	0.22759831	-0.11358656	0.89616613	-0.069241838	-0.13219993	0.88057042	0.17223241	-0.29203766	0.93522859	0.040023336	-0.15487044	1.3406923	-0.12271546	-0.1809813	1.3490877	0.20848488	-0.23290819	1.3931218	0.040854207	-0.31238661	1.0142739	-0.17180408	-0.29671285	0.99177927	0.27888182	-0.24675698	0.77005331	-0.23768325	-0.0968538	0.802028	0.27871419
189	0.752	0.13975042	-0.0097696908	0.026077091	-0.62857861	0.060483665	0.097769534	-0.0023520122	0.022050001	-0.033330275	-0.67579663	0.20303488	0.14558333	0.004641904	0.042353811	0.064578984	-0.6245014	0.20279548	0.062225306	-0.078978556	-0.012415103	0.0010152312	-0.71721539	0.24588871	0.084151496	0.031966098	0.43252082	-0.081546316	-0.27594006	0.4044735	0.22634616	0.019538938	0.43596135	0.043028515	-0.26181229	0.3751078	0.10013423	-0.16624686	0.80718292	-0.14062315	-0.23280554	0.79369175	0.22655856	-0.10698465	0.89646414	-0.069674702	-0.12585644	0.88034414	0.17172133	-0.28467202	0.93557706	0.04053049	-0.14783086	1.3408332	-0.12273062	-0.17384579	1.3490988	0.20849148	-0.2260271	1.3934176	0.040831219	-0.30492326	1.0140874	-0.17213837	-0.29089474	0.99237801	0.27867896	-0.23791907	0.76994428	-0.23760106	-0.093426228	0.80024454	0.27951319
190	0.756	0.13981521	-0.0098650335	0.026138035	-0.62330021	0.06246012	0.099649273	-0.0020676511	0.02189381	-0.033244539	-0.66487037	0.20724877	0.14766176	0.0048251649	0.042235725	0.064707818	-0.61395741	0.2059615	0.064060817	-0.079074249	-0.012376275	0.0012402462	-0.70565662	0.25188779	0.086833404	0.036219137	0.43163651	-0.081651458	-0.26716744	0.4043031	0.22773433	0.023874758	0.43479881	0.042791948	-0.2495388	0.37419315	0.10108787	-0.15981656	0.80729521	-0.14084335	-0.22627319	0.79320795	0.22607737	-0.10047424	0.89676671	-0.070015748	-0.11966227	0.8802732	0.17131205	-0.27780797	0.93601962	0.040343236	-0.14083432	1.3410624	-0.1227342	-0.16683285	1.3492049	0.20851865	-0.21909179	1.3938783	0.04076078	-0.29739882	1.0139501	-0.17259203	-0.2850372	0.9930178	0.27857526	-0.2289909	0.76991721	-0.23746798	-0.090035075	0.79853645	0.28032139
191	0.76	0.1398581	-0.0099350667	0.026156571	-0.61716129	0.064684992	0.10159739	-0.001749426	0.021756155	-0.033199675	-0.65376664	0.21119295	0.14963926	0.0050663957	0.042143974	0.064714591	-0.60298305	0.20905382	0.065881959	-0.079184545	-0.012348036	0.0014002636	-0.69371012	0.25762237	0.089498449	0.040294268	0.4309064	-0.081816831	-0.25820842	0.40465425	0.22940662	0.027686372	0.4337937	0.042507466	-0.23737538	0.37362327	0.10178239	-0.15337756	0.80755109	-0.14103299	-0.2203385	0.79290421	0.22596432	-0.094048843	0.89708952	-0.070272601	-0.11360552	0.88036328	0.17101072	-0.27130511	0.93654714	0.040155031	-0.13388223	1.3413766	-0.12272684	-0.15994834	1.3494157	0.20856972	-0.21217848	1.3944813	0.040692173	-0.28979025	1.0138786	-0.17319031	-0.27915013	0.99371287	0.27856003	-0.21997551	0.76998185	-0.2372835	-0.08669082	0.79690647	0.28114338
192	0.764	0.13987115	-0.009988773	0.026160555	-0.60996315	0.067166994	0.10364393	-0.0014401557	0.021644972	-0.033185554	-0.64252766	0.21491131	0.15147431	0.005273688	0.042080977	0.064653593	-0.59160037	0.21213547	0.067699262	-0.07927653	-0.012328967	0.0014532685	-0.68134989	0.26295506	0.092005858	0.044131098	0.43033124	-0.08202761	-0.24741867	0.40523115	0.23114877	0.031125814	0.43302538	0.042254278	-0.22526982	0.37337537	0.10223822	-0.14693378	0.80799032	-0.14121156	-0.21461055	0.79279901	0.22598546	-0.087704566	0.8974478	-0.070458551	-0.10767775	0.88061531	0.17081675	-0.26494839	0.93713176	0.040334514	-0.12696967	1.3417747	-0.12270805	-0.15318697	1.3497408	0.20863717	-0.2053421	1.3951896	0.040615138	-0.28219301	1.0138899	-0.17384101	-0.27327705	0.99447906	0.27862643	-0.21087691	0.77014525	-0.23704833	-0.083405058	0.79536099	0.28198302
193	0.768	0.13985141	-0.01003112	0.026163879	-0.6016817	0.069847344	0.10585235	-0.0012058009	0.021559652	-0.033195782	-0.63112893	0.21849031	0.15316659	0.0053976378	0.042046629	0.064572626	-0.57997699	0.21529734	0.069469256	-0.079345664	-0.012319534	0.0014096231	-0.66874669	0.26788517	0.094303226	0.047675408	0.42990196	-0.08223263	-0.23496116	0.40578232	0.23262527	0.03428849	0.43251917	0.042072021	-0.21318077	0.3734381	0.1024735	-0.14048986	0.80863934	-0.14138676	-0.20895854	0.79292241	0.22601363	-0.081450473	0.8978635	-0.070585401	-0.10187287	0.88103302	0.17072239	-0.25871049	0.93787315	0.040401286	-0.12009239	1.3422627	-0.12267426	-0.14653958	1.3501929	0.2087101	-0.19854485	1.3959701	0.040420257	-0.27471238	1.0139929	-0.17442978	-0.2674699	0.99532992	0.27877255	-0.20169929	0.7704161	-0.23676246	-0.080165796	0.79392177	0.28284506
